<svg id="Layer_1" data-name="Layer 1" xmlns="http://www.w3.org/2000/svg" viewBox="0 0 100 100"><defs><style>.cls-1{fill:#e79797;}.cls-2{fill:#5e5050;}</style></defs><path class="cls-1" d="M51,9A41,41,0,1,1,10,50,41,41,0,0,1,51,9m0-9a50,50,0,1,0,50,50A50,50,0,0,0,51,0Z" transform="translate(-1 0)"/><path class="cls-2" d="M43.64,24H47V49.56H43.5V30.42l.18,1.12L37.39,46h-2.5L28.6,31.89l.17-1.47V49.56h-3.5V24h3.36l7.51,16.88Z" transform="translate(-1 0)"/><path class="cls-2" d="M70.68,39.17V49.56H67.09V39.17L59.31,24h4l5.59,11.53L74.47,24h4Z" transform="translate(-1 0)"/><path d="M21.3,63.6a2.6,2.6,0,0,1-1-1.11,3.57,3.57,0,0,1-.37-1.67V58.48a3.57,3.57,0,0,1,.37-1.67,2.68,2.68,0,0,1,1-1.12,3,3,0,0,1,1.55-.39,2.85,2.85,0,0,1,2.38,1.2,3.45,3.45,0,0,1,.56,1.33H24.56a1.73,1.73,0,0,0-.37-.71,1.91,1.91,0,0,0-.61-.49,1.7,1.7,0,0,0-.73-.17,1.64,1.64,0,0,0-.91.26,1.61,1.61,0,0,0-.61.7,2.51,2.51,0,0,0-.22,1.06v2.34a2.46,2.46,0,0,0,.22,1,1.64,1.64,0,0,0,.61.71,1.72,1.72,0,0,0,.91.25,1.81,1.81,0,0,0,.73-.16,1.79,1.79,0,0,0,1-1.21h1.23a3.39,3.39,0,0,1-.56,1.33,3,3,0,0,1-1,.89,2.87,2.87,0,0,1-1.34.31A3,3,0,0,1,21.3,63.6Z" transform="translate(-1 0)"/><path d="M30.71,55.39h1.2v8.52h-1.2Zm.6,7.38h4.87v1.14H31.31Z" transform="translate(-1 0)"/><path d="M42.06,63.6A2.65,2.65,0,0,1,41,62.5a3.46,3.46,0,0,1-.37-1.65V58.44A3.46,3.46,0,0,1,41,56.79a2.65,2.65,0,0,1,1.05-1.1,3.36,3.36,0,0,1,3.14,0,2.65,2.65,0,0,1,1,1.1,3.46,3.46,0,0,1,.37,1.65v2.41a3.46,3.46,0,0,1-.37,1.65,2.65,2.65,0,0,1-1,1.1,3.36,3.36,0,0,1-3.14,0Zm2.5-1a1.58,1.58,0,0,0,.62-.68,2.15,2.15,0,0,0,.22-1V58.4a2.15,2.15,0,0,0-.22-1,1.63,1.63,0,0,0-.62-.68,2,2,0,0,0-1.86,0,1.63,1.63,0,0,0-.62.68,2.15,2.15,0,0,0-.22,1v2.49a2.15,2.15,0,0,0,.22,1,1.58,1.58,0,0,0,.62.68,1.92,1.92,0,0,0,1.86,0Z" transform="translate(-1 0)"/><path d="M53.18,63.88a4.59,4.59,0,0,1-1.93-.94L52,62a3.18,3.18,0,0,0,1.07.64,3.72,3.72,0,0,0,1.27.21,2.64,2.64,0,0,0,1.44-.34,1.11,1.11,0,0,0,.51-1h0a1.06,1.06,0,0,0-.23-.71,1.44,1.44,0,0,0-.6-.38,6,6,0,0,0-1-.23h-.16A9.58,9.58,0,0,1,53,59.87a2,2,0,0,1-.92-.68,2.17,2.17,0,0,1-.38-1.39h0A2.56,2.56,0,0,1,52,56.44a2.27,2.27,0,0,1,1-.85,4.17,4.17,0,0,1,1.63-.29,3.82,3.82,0,0,1,.9.1,3.87,3.87,0,0,1,.87.29,5,5,0,0,1,.85.5l-.68,1a3.93,3.93,0,0,0-1-.54,2.73,2.73,0,0,0-1-.18,2.34,2.34,0,0,0-1.36.35,1.15,1.15,0,0,0-.48,1h0a.94.94,0,0,0,.25.7,1.6,1.6,0,0,0,.62.37,10.11,10.11,0,0,0,1,.25h.08l.07,0H55a6.78,6.78,0,0,1,1.29.37,2,2,0,0,1,.87.7,2.27,2.27,0,0,1,.35,1.32v0a2.31,2.31,0,0,1-.37,1.33A2.27,2.27,0,0,1,56,63.7a4.3,4.3,0,0,1-1.69.29A6.09,6.09,0,0,1,53.18,63.88Z" transform="translate(-1 0)"/><path d="M62.39,55.39h1.2v8.52h-1.2Zm.58,0h4.9v1.13H63Zm0,3.72h4.25v1.13H63Zm0,3.66h4.9v1.14H63Z" transform="translate(-1 0)"/><path d="M71.62,55.39h6v1.13h-6Zm2.4.69h1.2v7.83H74Z" transform="translate(-1 0)"/></svg>